<svg fill="none" height="534" width="510" xmlns="http://www.w3.org/2000/svg"><clipPath id="a"><path d="M0 0h510v534H0z"/></clipPath><g clip-path="url(#a)"><g fill="#c2c7d1"><path d="M102.641 445.781c-.141.281-.141.703-.141.985 0 .843.422 1.687 1.125 2.109l2.109.984c.282.141.704.141.985.141.703 0 1.687-.422 1.969-1.125l11.531-23.063c.14-.14.14-.562.14-.843-1.687-.422-4.64-1.266-6.328-1.828zm69.187-22.64c-1.687.562-4.64 1.406-6.328 1.828 0 .281 0 .703.141.843l11.531 23.063c.281.703 1.266 1.125 1.969 1.125.281 0 .703 0 .984-.141l2.109-.984c.704-.422 1.125-1.266 1.125-2.109 0-.282 0-.704-.14-.985zM183.5 407.25c0-5.625-8.016-10.688-19.828-13.5-2.531-9-10.828-15.75-20.672-15.75-9.984 0-18.281 6.75-20.812 15.75-11.813 2.812-19.688 7.875-19.688 13.5 0 8.719 18 15.891 40.5 15.891 22.359 0 40.5-7.172 40.5-15.891zm-67.5 3.375c-1.969 0-3.375-1.406-3.375-3.375 0-1.828 1.406-3.375 3.375-3.375 1.828 0 3.375 1.547 3.375 3.375 0 1.969-1.547 3.375-3.375 3.375zm27 6.891c-1.969 0-3.375-1.547-3.375-3.375 0-1.969 1.406-3.375 3.375-3.375 1.828 0 3.375 1.406 3.375 3.375 0 1.828-1.547 3.234-3.375 3.375zm14.625-16.032C153.828 403.453 147.219 405 143 405h-.141c-4.218 0-10.828-1.547-14.625-3.516 0-.562-.14-1.406-.14-1.968 0-8.157 6.609-14.766 14.906-14.766 8.156 0 14.766 6.609 14.766 14.766 0 .562-.141 1.406-.141 1.968zM170 410.625c-1.969 0-3.375-1.406-3.375-3.375 0-1.828 1.406-3.375 3.375-3.375 1.828 0 3.375 1.547 3.375 3.375 0 1.969-1.547 3.375-3.375 3.375zM314.75 122H353c2.39 0 4.5-1.969 4.5-4.5 0-17.297-14.204-31.5-31.5-31.5v-9h24.75c1.125 0 2.25-.984 2.25-2.25v-4.5c0-1.125-1.125-2.25-2.25-2.25h-58.5c-1.266 0-2.25 1.125-2.25 2.25v4.5c0 1.266.984 2.25 2.25 2.25H317v9h-29.25l-6.188-8.016c-.422-.562-.984-.984-1.687-.984h-5.625c-1.547 0-2.672 1.406-2.25 2.813L276.5 95l22.5 9 12.093 16.312c.703.985 2.391 1.688 3.516 1.688zm15.75-26.438c8.718 1.829 15.75 8.719 17.437 17.438H330.5zm30.796 36.985l-3.093-3.094c-.985-.844-2.391-.844-3.235 0-.984.985-1.968 1.547-3.515 1.547H305.75c-1.266 0-2.25 1.125-2.25 2.25v4.5a2.22 2.22 0 0 0 2.25 2.25h45.703c2.109 0 5.062 0 9.703-4.078.984-.844.984-2.391.14-3.375zM172.133 474.585l-1.245-1.025-1.868-6.973c-.292-1.086-1.639-1.405-2.513-.685-.785.695-1.381 1.729-1.797 2.713l-8.184-6.639c-1.983-1.604-5.475-2.318-8.034-1.729l-28.797 7.716c-4.437 1.189-6.998 5.757-5.834 10.104l2.111 7.878c-1.067 1.451-1.469 3.209-.984 5.02l.776 2.898.725-.194a5.982 5.982 0 0 0 4.242-7.349l-2.523-9.418a3.773 3.773 0 0 1 1.366-3.957c.031.477.128.839.225 1.202l7.376 27.528a1.48 1.48 0 0 0 1.837 1.061l5.796-1.553c.724-.194 1.279-1.022 1.061-1.837l-2.718-10.142c1.058.687 2.224 1.054 3.432 1.216l.631 2.354a1.481 1.481 0 0 0 1.837 1.061c.724-.194 1.279-1.022 1.06-1.837l-.412-1.54c.839-.128 1.159-.019 2.898-.776l.412 1.539a1.481 1.481 0 0 0 1.837 1.061c.725-.194 1.279-1.022 1.061-1.837l-.631-2.355c.875-.719 1.701-1.62 2.298-2.654l2.693 10.052c.218.815 1.113 1.255 1.837 1.061l5.796-1.553a1.48 1.48 0 0 0 1.06-1.837l-4.27-15.938 3.674 2.121 1.019 3.804c.267.996 1.108 2.323 1.846 2.902l5.307 4.595c.925.917 2.774 1.296 4.041.956 1.993-.534 3.44-2.378 3.268-4.467l-.652-10.404a2.929 2.929 0 0 0-1.06-2.143zm-25.917-3.634l-1.525 2.64c-1.483 2.436-3.908 4.25-6.625 4.978l-.09.025c-2.717.728-5.725.369-8.227-.999l-2.641-1.525c-1.746-1.085-1.151-3.573 1.113-4.18l14.941-4.004c2.264-.606 4.024 1.252 3.054 3.065zm22.485 11.833a1.48 1.48 0 0 1-1.837-1.06c-.194-.725.245-1.619 1.06-1.838.725-.194 1.643.337 1.838 1.061.218.815-.337 1.643-1.061 1.837z"/></g><path clip-rule="evenodd" d="M485.384 115.583c7.164 1.465 13.106 5.044 17.827 10.737 4.722 5.694 7.082 12.282 7.082 19.766 0 5.693-1.383 10.94-4.151 15.739s-6.553 8.581-11.356 11.347c-4.803 2.765-10.053 4.148-15.751 4.148h-89.869c-6.349 0-12.21-1.586-17.583-4.758-5.373-3.173-9.646-7.443-12.821-12.811-3.175-5.369-4.762-11.225-4.762-17.57 0-7.645 2.198-14.478 6.594-20.497 4.395-6.019 10.012-10.249 16.85-12.689v-1.952c0-6.995 1.75-13.503 5.25-19.522 3.501-6.019 8.263-10.777 14.287-14.275C403.004 69.75 409.557 68 416.639 68c7.083 0 13.635 1.79 19.659 5.368s10.745 8.297 14.164 14.153c3.908-2.602 8.222-3.904 12.943-3.904 6.513 0 12.048 2.278 16.607 6.833 4.558 4.555 6.837 10.086 6.837 16.593 0 2.928-.488 5.775-1.465 8.54zM360.384 351.583c7.164 1.465 13.106 5.044 17.827 10.737 4.722 5.694 7.082 12.282 7.082 19.766 0 5.693-1.383 10.94-4.151 15.739s-6.553 8.581-11.356 11.347c-4.803 2.765-10.053 4.148-15.751 4.148h-89.869c-6.349 0-12.21-1.586-17.583-4.758-5.373-3.173-9.646-7.443-12.821-12.811-3.175-5.369-4.762-11.225-4.762-17.57 0-7.645 2.198-14.478 6.594-20.497 4.395-6.019 10.012-10.249 16.85-12.689v-1.952c0-6.995 1.75-13.502 5.25-19.522 3.501-6.019 8.263-10.777 14.287-14.275 6.023-3.497 12.576-5.246 19.658-5.246 7.083 0 13.635 1.789 19.659 5.368s10.745 8.297 14.164 14.153c3.908-2.602 8.222-3.904 12.943-3.904 6.513 0 12.048 2.278 16.607 6.833 4.558 4.555 6.837 10.086 6.837 16.593 0 2.928-.488 5.775-1.465 8.54zM65.692 290.792c3.582.732 6.553 2.521 8.914 5.368s3.54 6.141 3.54 9.883c0 2.847-.691 5.47-2.075 7.869-1.384 2.4-3.277 4.291-5.678 5.674s-5.027 2.074-7.876 2.074H17.583c-3.175 0-6.105-.793-8.791-2.379a17.907 17.907 0 0 1-6.411-6.406C.794 310.191 0 307.263 0 304.091c0-3.823 1.099-7.239 3.297-10.249 2.198-3.01 5.006-5.124 8.425-6.344v-.977c0-3.497.875-6.751 2.625-9.76a19.39 19.39 0 0 1 7.143-7.138c3.012-1.749 6.289-2.623 9.83-2.623 3.54 0 6.817.895 9.83 2.684 3.011 1.79 5.372 4.149 7.081 7.077 1.954-1.302 4.111-1.952 6.472-1.952 3.256 0 6.023 1.138 8.303 3.416 2.28 2.277 3.419 5.043 3.419 8.296 0 1.465-.245 2.888-.733 4.271z" fill="#fff" fill-rule="evenodd"/><path d="M450.156 275.649l-.679-2.536c-3.524-2.647-6.288-6.08-8.038-10.075-.496-1.129-2.157-1.169-2.639-.07-1.295 2.774-2.131 5.812-2.326 9.068 4.001 2.616 8.797 3.854 13.682 3.613zm7.619-12.136c-4.075 1.092-6.371 5.201-5.279 9.276l1.432 5.343c-9.654 2.005-19.2-1.746-25.031-9.016-.834-.941-2.488-.595-2.65.613-.69 3.582-.535 7.422.46 11.135 1.723 6.43 6.403 11.581 12.211 14.781 1.492.862 2.912 1.452 4.332 2.042l-12.166 6.754c-.948.448-1.085 1.747-.324 2.416 2.286 2.008 7.296 5.131 15.699 3.17.749-.104 1.401-.569 1.823-1.168l4.593-6.763 6.973-1.868c7.969-2.136 12.766-10.312 10.631-18.281l-3.906-14.579 1.344-6.572zm2.354 8.784c-.815.219-1.643-.336-1.837-1.061a1.48 1.48 0 0 1 1.06-1.837c.725-.194 1.619.246 1.837 1.061.195.724-.336 1.643-1.06 1.837z" fill="#c2c7d1"/></g></svg>